<svg width="43" height="43" viewBox="0 0 43 43" fill="none" xmlns="http://www.w3.org/2000/svg">
<path d="M42.88 21.44C42.88 9.599 33.281 0 21.44 0C9.599 0 0 9.599 0 21.44C0 26.826 2.001 31.735 5.28 35.501V19.897H12.698V29.848H21.579V19.897H28.997V41.484C37.104 38.425 42.88 30.617 42.88 21.44Z" fill="#5ACC00"/>
<path d="M12.6982 35.5891V41.0041C15.3702 42.2001 18.3232 42.8801 21.4402 42.8801C21.4872 42.8801 21.5332 42.8731 21.5802 42.8731V35.5891H12.6982Z" fill="#5ACC00"/>
<path d="M21.5798 19.897V29.848H12.6988V19.897H5.27979V35.501C7.31279 37.835 9.83579 39.723 12.6978 41.004V35.589H21.5788V42.873C24.1918 42.856 26.6848 42.356 28.9968 41.484V19.897H21.5798Z" fill="white"/>
<path d="M32.8838 7.12906C32.7778 7.14206 32.4598 7.17706 32.0578 7.21906C31.7788 7.24806 31.5068 7.27106 31.3238 7.28506C30.9608 6.62506 30.3178 6.16406 29.5138 6.16406C28.8818 6.16406 28.3678 6.36006 27.9368 6.89906C27.5748 7.35106 27.3398 7.97506 27.1108 8.30006C25.2448 10.9451 22.2698 11.4071 18.7828 11.4071C17.9788 11.4071 17.1998 11.3081 16.4478 11.1351C16.3268 11.1071 16.2078 11.2291 16.2628 11.3411C17.6738 14.1941 21.0368 16.2561 23.7688 16.7081V19.8591H24.5648V16.7911C24.6438 16.7951 24.7248 16.8031 24.8028 16.8041C25.2948 16.8071 25.7378 16.7681 26.1578 16.7061V19.8591H26.9538V16.5421C28.2428 16.1911 29.1988 15.4921 30.0268 14.4851C31.0248 13.2711 31.6078 11.1131 31.6428 9.01306C31.7728 8.88006 32.0738 8.56506 32.2758 8.29406C32.7398 7.67006 33.1038 7.10106 32.8838 7.12906ZM29.7118 8.53306C29.3698 8.53306 29.0928 8.25606 29.0928 7.91406C29.0928 7.57206 29.3698 7.29506 29.7118 7.29506C30.0538 7.29506 30.3308 7.57206 30.3308 7.91406C30.3308 8.25606 30.0538 8.53306 29.7118 8.53306Z" fill="white"/>
</svg>
