<svg width="64" height="65" viewBox="0 0 64 65" fill="none" xmlns="http://www.w3.org/2000/svg">
<circle cx="32" cy="32.3922" r="32" fill="#F6F7FB"/>
<path d="M45 37.9131V26.7566C44.9995 26.2675 44.8709 25.7872 44.6271 25.3637C44.3834 24.9402 44.033 24.5886 43.6111 24.3441L33.8889 18.7658C33.4666 18.521 32.9876 18.3922 32.5 18.3922C32.0124 18.3922 31.5334 18.521 31.1111 18.7658L21.3889 24.3441C20.967 24.5886 20.6166 24.9402 20.3729 25.3637C20.1291 25.7872 20.0005 26.2675 20 26.7566V37.9131C20.0005 38.4022 20.1291 38.8826 20.3729 39.306C20.6166 39.7295 20.967 40.0811 21.3889 40.3257L31.1111 45.9039C31.5334 46.1487 32.0124 46.2776 32.5 46.2776C32.9876 46.2776 33.4666 46.1487 33.8889 45.9039L43.6111 40.3257C44.033 40.0811 44.3834 39.7295 44.6271 39.306C44.8709 38.8826 44.9995 38.4022 45 37.9131Z" stroke="black" stroke-width="2.5" stroke-linecap="round" stroke-linejoin="round"/>
<path d="M20.375 25.3062L32.5 32.3487L44.625 25.3062" stroke="black" stroke-width="2.5" stroke-linecap="round" stroke-linejoin="round"/>
<path d="M32.5 46.3922V32.3351" stroke="black" stroke-width="2.5" stroke-linecap="round" stroke-linejoin="round"/>
</svg>
