<svg width="65" height="65" viewBox="0 0 65 65" fill="none" xmlns="http://www.w3.org/2000/svg">
<circle cx="32.4722" cy="32.3922" r="32" fill="#F6F7FB"/>
<path d="M44.4722 46.3922V43.3922C44.4722 41.8009 43.84 40.2747 42.7148 39.1495C41.5896 38.0243 40.0635 37.3922 38.4722 37.3922H26.4722C24.8809 37.3922 23.3547 38.0243 22.2295 39.1495C21.1043 40.2747 20.4722 41.8009 20.4722 43.3922V46.3922" stroke="black" stroke-width="2.5" stroke-linecap="round" stroke-linejoin="round"/>
<path d="M32.4722 30.3922C35.7859 30.3922 38.4722 27.7059 38.4722 24.3922C38.4722 21.0784 35.7859 18.3922 32.4722 18.3922C29.1585 18.3922 26.4722 21.0784 26.4722 24.3922C26.4722 27.7059 29.1585 30.3922 32.4722 30.3922Z" stroke="black" stroke-width="2.5" stroke-linecap="round" stroke-linejoin="round"/>
</svg>
