<svg width="49" height="49" viewBox="0 0 49 49" fill="none" xmlns="http://www.w3.org/2000/svg">
<circle cx="24.375" cy="24.2222" r="24" fill="#F6F7FB"/>
<path d="M28.875 15.2222H19.875C17.3897 15.2222 15.375 17.2369 15.375 19.7222V28.7222C15.375 31.2074 17.3897 33.2222 19.875 33.2222H28.875C31.3603 33.2222 33.375 31.2074 33.375 28.7222V19.7222C33.375 17.2369 31.3603 15.2222 28.875 15.2222Z" stroke="black" stroke-width="2" stroke-linecap="round" stroke-linejoin="round"/>
<path d="M27.975 23.6547C28.0861 24.4037 27.9582 25.1687 27.6094 25.8408C27.2607 26.5129 26.7089 27.058 26.0325 27.3984C25.3561 27.7388 24.5896 27.8573 23.842 27.737C23.0944 27.6167 22.4038 27.2638 21.8684 26.7284C21.333 26.1929 20.98 25.5023 20.8597 24.7547C20.7394 24.0071 20.8579 23.2406 21.1983 22.5642C21.5388 21.8879 22.0838 21.3361 22.7559 20.9873C23.428 20.6386 24.193 20.5106 24.942 20.6217C25.7061 20.735 26.4134 21.091 26.9596 21.6372C27.5057 22.1833 27.8617 22.8907 27.975 23.6547Z" stroke="black" stroke-width="2" stroke-linecap="round" stroke-linejoin="round"/>
<path d="M29.325 19.2725H29.3333" stroke="black" stroke-width="2" stroke-linecap="round" stroke-linejoin="round"/>
</svg>
