<svg width="49" height="49" viewBox="0 0 49 49" fill="none" xmlns="http://www.w3.org/2000/svg">
<path d="M47.5641 24.88C47.5641 37.6032 37.2337 47.92 24.4872 47.92C11.7407 47.92 1.41028 37.6032 1.41028 24.88C1.41028 12.1568 11.7407 1.83997 24.4872 1.83997C37.2337 1.83997 47.5641 12.1568 47.5641 24.88Z" stroke="black" stroke-width="2"/>
<path fill-rule="evenodd" clip-rule="evenodd" d="M28.2062 18.1617C28.5979 18.5528 28.5979 19.1871 28.2062 19.5782L22.8963 24.88L28.2062 30.1817C28.5979 30.5728 28.5979 31.2071 28.2062 31.5982C27.8144 31.9894 27.1792 31.9894 26.7874 31.5982L20.7682 25.5882C20.3764 25.1971 20.3764 24.5628 20.7682 24.1717L26.7874 18.1617C27.1792 17.7705 27.8144 17.7705 28.2062 18.1617Z" fill="black"/>
</svg>
