<svg width="100" height="44" viewBox="0 0 100 44" fill="none" xmlns="http://www.w3.org/2000/svg">
<path d="M25.4637 1.107C25.3417 1.122 24.9767 1.163 24.5157 1.21C24.1957 1.243 23.8837 1.269 23.6747 1.286C23.2587 0.529 22.5207 0 21.5987 0C20.8737 0 20.2847 0.225 19.7897 0.843C19.3747 1.362 19.1047 2.078 18.8417 2.45C16.7007 5.484 13.2887 6.014 9.28868 6.014C8.36668 6.014 7.47268 5.9 6.60968 5.702C6.47068 5.67 6.33468 5.81 6.39768 5.938C8.01568 9.211 11.8737 11.576 15.0077 12.094V16.141H15.9207V12.19C16.0117 12.194 16.1047 12.204 16.1937 12.204C16.7577 12.208 17.2657 12.163 17.7477 12.092V16.141H18.6607V11.904C20.1397 11.501 21.2357 10.7 22.1857 9.544C23.3307 8.151 23.9987 5.676 24.0387 3.267C24.1887 3.114 24.5327 2.754 24.7647 2.442C25.2987 1.728 25.7167 1.075 25.4637 1.107ZM21.8067 2.708C21.4307 2.708 21.1257 2.403 21.1257 2.027C21.1257 1.651 21.4307 1.346 21.8067 1.346C22.1827 1.346 22.4877 1.651 22.4877 2.027C22.4877 2.403 22.1827 2.708 21.8067 2.708Z" fill="#5ACC00"/>
<path d="M19.181 16.134V37.048H14.341V28.473H4.84V37.048H0V16.134H4.84V24.38H14.341V16.134H19.181Z" fill="black"/>
<path d="M39.7663 20.9741L32.5063 38.0341C30.9523 41.9181 28.7413 43.0831 25.8433 43.0831C24.1993 43.0831 22.4083 42.5451 21.3633 41.6191L23.0663 38.3031C23.7823 38.9301 24.7683 39.3191 25.6943 39.3191C26.9793 39.3191 27.6963 38.7521 28.3233 37.3181L28.3843 37.1691L21.4223 20.9741H26.2323L30.7433 31.8791L35.2843 20.9741H39.7663Z" fill="black"/>
<path d="M57.8111 20.9741V34.3591C57.8111 40.3351 54.5841 43.0831 48.7891 43.0831C45.7411 43.0831 42.7841 42.3361 40.9011 40.8721L42.7541 37.5261C44.1281 38.6311 46.3691 39.3481 48.4311 39.3481C51.7171 39.3481 53.1521 37.8541 53.1521 34.9561V34.2691C51.9261 35.6131 50.1641 36.2701 48.0731 36.2701C43.6211 36.2701 40.0361 33.1931 40.0361 28.5021C40.0361 23.8121 43.6211 20.7341 48.0731 20.7341C50.3131 20.7341 52.1661 21.4811 53.3901 23.0341V20.9741H57.8111ZM53.2101 28.5031C53.2101 26.1431 51.4471 24.5601 48.9971 24.5601C46.5471 24.5601 44.7551 26.1431 44.7551 28.5031C44.7551 30.8631 46.5471 32.4471 48.9971 32.4471C51.4471 32.4471 53.2101 30.8631 53.2101 28.5031Z" fill="black"/>
<path d="M78.7242 20.9741V34.3591C78.7242 40.3351 75.4972 43.0831 69.7022 43.0831C66.6542 43.0831 63.6972 42.3361 61.8142 40.8721L63.6672 37.5261C65.0412 38.6311 67.2822 39.3481 69.3442 39.3481C72.6302 39.3481 74.0652 37.8541 74.0652 34.9561V34.2691C72.8392 35.6131 71.0772 36.2701 68.9862 36.2701C64.5342 36.2701 60.9492 33.1931 60.9492 28.5021C60.9492 23.8121 64.5342 20.7341 68.9862 20.7341C71.2262 20.7341 73.0792 21.4811 74.3032 23.0341V20.9741H78.7242ZM74.1232 28.5031C74.1232 26.1431 72.3602 24.5601 69.9102 24.5601C67.4602 24.5601 65.6682 26.1431 65.6682 28.5031C65.6682 30.8631 67.4602 32.4471 69.9102 32.4471C72.3602 32.4471 74.1232 30.8631 74.1232 28.5031Z" fill="black"/>
<path d="M98.7123 30.3261H86.5523C87.0003 32.3271 88.7033 33.5531 91.1543 33.5531C92.8563 33.5531 94.0823 33.0451 95.1873 31.9991L97.6663 34.6881C96.1723 36.3911 93.9323 37.2881 91.0333 37.2881C85.4763 37.2881 81.8613 33.7921 81.8613 29.0121C81.8613 24.2011 85.5363 20.7361 90.4353 20.7361C95.1563 20.7361 98.8013 23.9031 98.8013 29.0711C98.8023 29.4291 98.7413 29.9371 98.7123 30.3261ZM86.4923 27.6071H94.4093C94.0813 25.5751 92.5573 24.2611 90.4663 24.2611C88.3453 24.2611 86.8213 25.5451 86.4923 27.6071Z" fill="black"/>
</svg>
