<svg width="49" height="49" viewBox="0 0 49 49" fill="none" xmlns="http://www.w3.org/2000/svg">
<circle cx="24.375" cy="24.2222" r="24" fill="#F6F7FB"/>
<path d="M34.375 16.2311C33.5044 16.8334 32.5406 17.2941 31.5205 17.5954C30.9729 16.9779 30.2453 16.5403 29.4359 16.3416C28.6266 16.143 27.7745 16.193 26.9951 16.4848C26.2156 16.7766 25.5463 17.2962 25.0777 17.9732C24.6091 18.6503 24.3638 19.4522 24.375 20.2704V21.1621C22.7774 21.2027 21.1943 20.8552 19.7668 20.1505C18.3393 19.4457 17.1117 18.4058 16.1932 17.123C16.1932 17.123 12.5568 25.1479 20.7386 28.7146C18.8664 29.9612 16.6361 30.5862 14.375 30.498C22.5568 34.9564 32.5568 30.498 32.5568 20.2437C32.556 19.9953 32.5316 19.7476 32.4841 19.5036C33.4119 18.6061 34.0667 17.473 34.375 16.2311Z" stroke="black" stroke-width="2" stroke-linecap="round" stroke-linejoin="round"/>
</svg>
